# xmcd
# 
# Track frame offsets:
#     150
#     8516
#     28178
#     40910
#     65876
#     81307
#     92090
#     113302
#     132539
#     154219
#     182814
#     199783
# 
# Disc length: 2943
# 
# Revision: 0
# Processed by: cddbd v1.5.2PL0 Copyright (c) Steve Scherf et al.
# Submitted via: fre:ac v1.0.31
# 
DISCID=9e0b7d0c
DTITLE=Dietl - Die Olchis bekommen ein Haustier und Die Olchis im Zoo
DYEAR=2017
DGENRE=Folk
TTITLE0=Das ist ein Olchi
TTITLE1=Die Olchis bekommen ein Haustier
TTITLE2=Am nächsten Tag ist der Drache schon wieder gewachsen
TTITLE3=Doch bereits am nächsten Morgen stimmt irgendetwas nicht mit dem Drachen
TTITLE4=In Schmuddelfing kann uns keiner helfen
TTITLE5=Lied Grüne Dracheneier
TTITLE6=Die Olchis im Zoo
TTITLE7=Und ein paar Minuten später
TTITLE8=Da entdeckt Olchi-Opa den schwarzen Gorilla
TTITLE9=Bei den Lamas bleibt Olchi-Oma stehen
TTITLE10=Die Olchis tragen das arme Olchi-Kind
TTITLE11=So müssen sich die Olchis wohl oder übel allein auf den Weg machen
EXTD=
EXTT0=
EXTT1=
EXTT2=
EXTT3=
EXTT4=
EXTT5=
EXTT6=
EXTT7=
EXTT8=
EXTT9=
EXTT10=
EXTT11=
PLAYORDER=
